<?xml version="1.0" encoding="UTF-8" standalone="no"?>
<svg
   xmlns:dc="http://purl.org/dc/elements/1.1/"
   xmlns:cc="http://creativecommons.org/ns#"
   xmlns:rdf="http://www.w3.org/1999/02/22-rdf-syntax-ns#"
   xmlns:svg="http://www.w3.org/2000/svg"
   xmlns="http://www.w3.org/2000/svg"
   xmlns:sodipodi="http://sodipodi.sourceforge.net/DTD/sodipodi-0.dtd"
   xmlns:inkscape="http://www.inkscape.org/namespaces/inkscape"
   version="1.1"
   x="0px"
   y="0px"
   viewBox="0 0 100 100"
   enable-background="new 0 0 100 100"
   xml:space="preserve"
   id="svg2"
   inkscape:version="0.91 r13725"
   sodipodi:docname="noun_Info_223370.svg"
   width="100"
   height="100"><metadata
     id="metadata14"><rdf:RDF><cc:Work
         rdf:about=""><dc:format>image/svg+xml</dc:format><dc:type
           rdf:resource="http://purl.org/dc/dcmitype/StillImage" /><dc:title></dc:title></cc:Work></rdf:RDF></metadata><defs
     id="defs12" /><sodipodi:namedview
     pagecolor="#ffffff"
     bordercolor="#666666"
     borderopacity="1"
     objecttolerance="10"
     gridtolerance="10"
     guidetolerance="10"
     inkscape:pageopacity="0"
     inkscape:pageshadow="2"
     inkscape:window-width="1920"
     inkscape:window-height="1031"
     id="namedview10"
     showgrid="false"
     inkscape:zoom="3.776"
     inkscape:cx="74.920551"
     inkscape:cy="97.425593"
     inkscape:window-x="0"
     inkscape:window-y="27"
     inkscape:window-maximized="1"
     inkscape:current-layer="svg2" /><path
     d="m 16.499996,16.5 c -18.500001,18.5 -18.500001,48.5 0,67 18.5,18.5 48.500003,18.5 67.000003,0 18.500011,-18.5 18.500011,-48.5 0,-67 -18.5,-18.4999998 -48.500003,-18.4999998 -67.000003,0 z m 35.4,6 c 4.000003,0 7.200003,3.3 7.200003,7.3 0,4 -3.3,7.3 -7.200003,7.3 -4,0 -7.3,-3.3 -7.3,-7.4 0,-4 3.3,-7.2 7.3,-7.2 z m 10.300003,48.9 c -0.2,0.6 -0.6,1.3 -1,1.7 -2.6,2.7 -5.8,4.3 -9.600003,4.3 -1.8,0 -3.5,0 -5.3,-0.3 -2.9,-0.4 -6.6,-4 -6.1,-7.8 0.4,-2.6 0.8,-5.2 1.2,-7.8 0.8,-4.5 1.6,-9.1 2.4,-13.6 0,-0.3 0.1,-0.6 0.1,-0.9 0,-1.9 -0.6,-2.6 -2.5,-2.8 -0.8,-0.1 -1.6,-0.2 -2.4,-0.4 -0.9,-0.3 -1.4,-1.1 -1.3,-1.8 0.1,-0.8 0.6,-1.3 1.6,-1.5 0.5,-0.1 1.1,-0.1 1.7,-0.1 2.2,0 4.4,0 6.7,0 2.4,0 4.7,0 7.100003,0 1.7,0 2.7,0.8 2.7,2.5 0,1.4 -0.2,2.8 -0.5,4.2 -0.9,5.2 -1.9,10.3 -2.800003,15.5 -0.3,1.7 -0.7,3.4 -0.9,5.1 -0.1,0.8 0,1.7 0.2,2.5 0.3,1.1 1.100003,1.7 2.200003,1.6 0.9,-0.1 1.8,-0.4 2.7,-0.8 0.7,-0.3 1.3,-0.8 2,-1 1.2,-0.4 2.1,0.3 1.8,1.4 z"
     id="path4"
     inkscape:connector-curvature="0"
     style="fill:#ffffff" /></svg>