<?xml version="1.0" encoding="UTF-8" standalone="no"?>
<svg
   xmlns:dc="http://purl.org/dc/elements/1.1/"
   xmlns:cc="http://creativecommons.org/ns#"
   xmlns:rdf="http://www.w3.org/1999/02/22-rdf-syntax-ns#"
   xmlns:svg="http://www.w3.org/2000/svg"
   xmlns="http://www.w3.org/2000/svg"
   xmlns:sodipodi="http://sodipodi.sourceforge.net/DTD/sodipodi-0.dtd"
   xmlns:inkscape="http://www.inkscape.org/namespaces/inkscape"
   version="1.1"
   x="0px"
   y="0px"
   viewBox="0 0 65 65"
   enable-background="new 0 0 64 64"
   xml:space="preserve"
   id="svg2"
   inkscape:version="0.91 r13725"
   sodipodi:docname="noun_Problem solution_1115131.svg"
   width="65"
   height="65"><metadata
     id="metadata22"><rdf:RDF><cc:Work
         rdf:about=""><dc:format>image/svg+xml</dc:format><dc:type
           rdf:resource="http://purl.org/dc/dcmitype/StillImage" /><dc:title></dc:title></cc:Work></rdf:RDF></metadata><defs
     id="defs20" /><sodipodi:namedview
     pagecolor="#ffffff"
     bordercolor="#666666"
     borderopacity="1"
     objecttolerance="10"
     gridtolerance="10"
     guidetolerance="10"
     inkscape:pageopacity="0"
     inkscape:pageshadow="2"
     inkscape:window-width="1920"
     inkscape:window-height="1031"
     id="namedview18"
     showgrid="false"
     inkscape:zoom="2.95"
     inkscape:cx="32"
     inkscape:cy="40"
     inkscape:window-x="0"
     inkscape:window-y="27"
     inkscape:window-maximized="1"
     inkscape:current-layer="g4" /><g
     id="g4"
     transform="translate(0.50032697,0.5)"><path
       d="M 33.103,57.093 28.778,34.842 9.796,38.532 13.637,58.29 c 0.268,1.377 1.6,2.276 2.977,2.008 l 3.926,-0.763 c 0.517,-0.101 0.715,-0.75 0.327,-1.107 -0.487,-0.449 -0.841,-1.051 -0.977,-1.751 -0.35,-1.8 0.872,-3.541 2.708,-3.806 1.629,-0.235 3.207,0.839 3.59,2.439 0.179,0.749 0.081,1.492 -0.223,2.13 -0.226,0.474 0.205,1 0.72,0.9 l 6.418,-1.247 z"
       id="path6"
       inkscape:connector-curvature="0"
       style="fill:#aa4339;fill-opacity:1" /><path
       d="M 35.069,29.158 54.051,25.468 50.211,5.71 C 49.943,4.333 48.61,3.434 47.234,3.702 l -3.926,0.763 c -0.517,0.101 -0.715,0.75 -0.327,1.107 0.487,0.449 0.841,1.051 0.977,1.751 0.35,1.8 -0.871,3.541 -2.708,3.806 -1.629,0.235 -3.207,-0.838 -3.59,-2.439 -0.179,-0.749 -0.081,-1.492 0.223,-2.13 0.226,-0.474 -0.205,-1 -0.72,-0.9 L 33.237,6.423 C 31.86,6.691 30.961,8.023 31.229,9.4 l 3.84,19.758 z"
       id="path8"
       inkscape:connector-curvature="0"
       style="fill:#aa4339;fill-opacity:1" /><path
       d="m 22.512,18.699 c 0.749,-0.179 1.492,-0.081 2.13,0.223 0.474,0.226 1,-0.205 0.9,-0.72 L 24.779,14.276 C 24.511,12.899 23.178,12 21.802,12.268 l -3.681,0.715 c -0.484,0.094 -0.901,-0.366 -0.744,-0.834 0.204,-0.611 0.228,-1.293 0.02,-1.971 C 16.959,8.752 15.555,7.8 14.068,7.922 c -1.949,0.161 -3.275,1.963 -2.912,3.829 0.11,0.564 0.36,1.063 0.708,1.471 0.32,0.375 0.106,0.958 -0.378,1.052 L 7.805,14.989 C 6.428,15.257 5.529,16.59 5.797,17.966 l 0.738,3.796 C 6.633,22.269 6.133,22.679 5.653,22.488 5.04,22.245 4.345,22.187 3.648,22.37 2.083,22.781 1.05,24.344 1.283,25.945 1.55,27.78 3.29,28.999 5.088,28.65 5.72,28.527 6.271,28.227 6.702,27.812 7.068,27.459 7.683,27.669 7.78,28.168 l 0.738,3.796 c 0.268,1.377 1.6,2.276 2.977,2.008 l 13.997,-2.721 c 1.377,-0.268 2.276,-1.601 2.008,-2.977 l -0.763,-3.926 c -0.101,-0.517 -0.75,-0.715 -1.107,-0.327 -0.449,0.487 -1.051,0.841 -1.751,0.977 -1.8,0.35 -3.541,-0.871 -3.806,-2.708 -0.235,-1.631 0.838,-3.209 2.439,-3.591 z"
       id="path10"
       inkscape:connector-curvature="0"
       style="fill:#aa4339;fill-opacity:1" /><path
       d="m 41.402,45.388 c -0.751,0.169 -1.493,0.062 -2.127,-0.25 -0.471,-0.232 -1.003,0.192 -0.909,0.709 l 0.713,3.935 c 0.25,1.38 1.571,2.296 2.951,2.046 l 3.689,-0.668 c 0.486,-0.088 0.896,0.378 0.733,0.844 -0.212,0.608 -0.245,1.29 -0.045,1.971 0.42,1.432 1.812,2.402 3.3,2.299 1.951,-0.135 3.3,-1.921 2.961,-3.791 -0.102,-0.565 -0.347,-1.068 -0.689,-1.48 -0.315,-0.379 -0.094,-0.959 0.391,-1.047 l 3.69,-0.668 c 1.38,-0.25 2.296,-1.571 2.046,-2.951 l -0.689,-3.806 c -0.092,-0.508 0.414,-0.912 0.891,-0.715 0.61,0.251 1.304,0.318 2.003,0.144 1.57,-0.391 2.623,-1.94 2.411,-3.544 -0.243,-1.838 -1.967,-3.08 -3.77,-2.753 -0.633,0.115 -1.188,0.408 -1.625,0.817 -0.371,0.348 -0.983,0.131 -1.073,-0.369 L 55.565,32.306 C 55.315,30.926 53.994,30.01 52.614,30.26 L 38.583,32.8 c -1.38,0.25 -2.296,1.571 -2.046,2.951 l 0.713,3.936 c 0.094,0.519 0.741,0.724 1.103,0.341 0.455,-0.482 1.061,-0.828 1.764,-0.955 1.804,-0.327 3.53,0.917 3.771,2.757 0.213,1.632 -0.881,3.197 -2.486,3.558 z"
       id="path12"
       inkscape:connector-curvature="0"
       style="fill:#aa4339;fill-opacity:1" /></g></svg>