<?xml version="1.0" encoding="UTF-8" standalone="no"?>
<svg
   xmlns:dc="http://purl.org/dc/elements/1.1/"
   xmlns:cc="http://creativecommons.org/ns#"
   xmlns:rdf="http://www.w3.org/1999/02/22-rdf-syntax-ns#"
   xmlns:svg="http://www.w3.org/2000/svg"
   xmlns="http://www.w3.org/2000/svg"
   xmlns:sodipodi="http://sodipodi.sourceforge.net/DTD/sodipodi-0.dtd"
   xmlns:inkscape="http://www.inkscape.org/namespaces/inkscape"
   version="1.1"
   x="0px"
   y="0px"
   viewBox="0 0 75 75"
   enable-background="new 0 0 64 64"
   xml:space="preserve"
   id="svg2"
   inkscape:version="0.91 r13725"
   sodipodi:docname="noun_tools_1476490.svg"
   width="75"
   height="75"><metadata
     id="metadata20"><rdf:RDF><cc:Work
         rdf:about=""><dc:format>image/svg+xml</dc:format><dc:type
           rdf:resource="http://purl.org/dc/dcmitype/StillImage" /><dc:title></dc:title></cc:Work></rdf:RDF></metadata><defs
     id="defs18" /><sodipodi:namedview
     pagecolor="#ffffff"
     bordercolor="#666666"
     borderopacity="1"
     objecttolerance="10"
     gridtolerance="10"
     guidetolerance="10"
     inkscape:pageopacity="0"
     inkscape:pageshadow="2"
     inkscape:window-width="1920"
     inkscape:window-height="1031"
     id="namedview16"
     showgrid="false"
     inkscape:zoom="5.9"
     inkscape:cx="47.844302"
     inkscape:cy="22.527405"
     inkscape:window-x="0"
     inkscape:window-y="27"
     inkscape:window-maximized="1"
     inkscape:current-layer="svg2" /><g
     id="g4"
     style="fill:#aa4339;fill-opacity:1;stroke:#000000;stroke-opacity:0"
     transform="translate(5.5070271,5.5127758)"><path
       d="m 19.5,26.7 32.1,35.8 c 1.5,1.7 4.1,1.7 5.7,0.2 l 5.4,-5.4 c 1.6,-1.6 1.5,-4.2 -0.2,-5.7 L 26.7,19.5 C 28.9,14.4 27.9,8.3 23.8,4.2 20.2,0.6 15.2,-0.6 10.6,0.6 10,0.7 9.8,1.4 10.2,1.8 l 8.3,8.3 -8.4,8.4 -8.3,-8.3 C 1.4,9.8 0.7,10 0.6,10.6 c -1.2,4.6 0,9.6 3.6,13.2 4.1,4.1 10.3,5.1 15.3,2.9 z"
       id="path6"
       style="fill:#aa4339;fill-opacity:1;stroke:#000000;stroke-opacity:0"
       inkscape:connector-curvature="0" /><path
       d="m 22.3,34.8 8.8,9.8 -17.3,17.3 c -2,2 -4.8,2.4 -7.2,1.4 C 5.8,63 5.1,62.5 4.5,61.9 3.9,61.3 3.4,60.6 3.1,59.8 2.1,57.4 2.5,54.5 4.5,52.6 L 22.3,34.8 Z"
       id="path8"
       style="fill:#aa4339;fill-opacity:1;stroke:#000000;stroke-opacity:0"
       inkscape:connector-curvature="0" /><polygon
       points="41.5,28.4 37.8,25.1 46.6,16.3 46,15.7 47,12.7 56.8,4.9 61.5,9.5 53.7,19.4 50.7,20.3 50.1,19.8 "
       id="polygon10"
       style="fill:#aa4339;fill-opacity:1;stroke:#000000;stroke-opacity:0" /></g></svg>