<?xml version="1.0" encoding="UTF-8" standalone="no"?>
<svg
   xmlns:dc="http://purl.org/dc/elements/1.1/"
   xmlns:cc="http://creativecommons.org/ns#"
   xmlns:rdf="http://www.w3.org/1999/02/22-rdf-syntax-ns#"
   xmlns:svg="http://www.w3.org/2000/svg"
   xmlns="http://www.w3.org/2000/svg"
   xmlns:sodipodi="http://sodipodi.sourceforge.net/DTD/sodipodi-0.dtd"
   xmlns:inkscape="http://www.inkscape.org/namespaces/inkscape"
   version="1.1"
   x="0px"
   y="0px"
   viewBox="0 0 80 80"
   enable-background="new 0 0 100 100"
   xml:space="preserve"
   id="svg2"
   inkscape:version="0.91 r13725"
   sodipodi:docname="brand-logo.svg"
   width="80"
   height="80"><metadata
     id="metadata20"><rdf:RDF><cc:Work
         rdf:about=""><dc:format>image/svg+xml</dc:format><dc:type
           rdf:resource="http://purl.org/dc/dcmitype/StillImage" /><dc:title></dc:title></cc:Work></rdf:RDF></metadata><defs
     id="defs18" /><sodipodi:namedview
     pagecolor="#ffffff"
     bordercolor="#666666"
     borderopacity="1"
     objecttolerance="10"
     gridtolerance="10"
     guidetolerance="10"
     inkscape:pageopacity="0"
     inkscape:pageshadow="2"
     inkscape:window-width="1920"
     inkscape:window-height="1031"
     id="namedview16"
     showgrid="false"
     inkscape:zoom="7.552"
     inkscape:cx="29.85873"
     inkscape:cy="46.355027"
     inkscape:window-x="0"
     inkscape:window-y="27"
     inkscape:window-maximized="1"
     inkscape:current-layer="g4154" /><g
     id="g4154"><path
       inkscape:connector-curvature="0"
       id="path4"
       d="m 41.932,5.133 c -8.019,0 -15.399,2.714 -21.29,7.264 l 4.317,4.139 c 4.77,-3.456 10.631,-5.499 16.972,-5.499 15.999,0 28.967,12.967 28.967,28.964 0,15.998 -12.968,28.965 -28.967,28.965 -15.998,0 -28.965,-12.967 -28.965,-28.965 0,-3.929 0.791,-7.67 2.21,-11.085 l 1.896,4.63 4.782,-1.957 -3.53,-8.63 -1.96,-4.786 -4.697,2.167 -8.465,3.907 2.165,4.692 4.236,-1.955 C 7.978,31.007 7.064,35.394 7.064,40 7.064,59.257 22.675,74.867 41.931,74.867 61.188,74.867 76.798,59.258 76.798,40 76.799,20.745 61.189,5.133 41.932,5.133 Z"
       style="fill:#ffffff" /><path
       inkscape:connector-curvature="0"
       id="path6"
       d="m 47.339,42.118 c -5.318,1.858 -8.125,7.678 -6.267,12.995 1.858,5.319 7.678,8.125 12.997,6.266 5.317,-1.857 8.122,-7.676 6.265,-12.994 -1.858,-5.32 -7.677,-8.123 -12.995,-6.267 z m 7.248,16.93 c 0.229,0.656 -0.118,1.374 -0.773,1.603 C 53.158,60.88 52.44,60.535 52.21,59.879 L 46.82,44.45 c -0.229,-0.656 0.116,-1.373 0.772,-1.603 0.655,-0.229 1.375,0.117 1.604,0.772 l 5.391,15.429 z"
       style="fill:#ffffff" /><path
       inkscape:connector-curvature="0"
       id="path8"
       d="m 38.613,26.736 c -0.834,5.572 3.006,10.768 8.578,11.603 5.571,0.835 10.767,-3.006 11.6,-8.579 0.835,-5.569 -3.005,-10.763 -8.576,-11.599 -5.572,-0.836 -10.765,3.006 -11.602,8.575 z m 18.357,1.479 c 0.688,0.102 1.161,0.745 1.058,1.431 -0.103,0.688 -0.744,1.162 -1.432,1.059 L 40.434,28.284 c -0.688,-0.103 -1.16,-0.743 -1.058,-1.43 0.103,-0.687 0.745,-1.162 1.431,-1.059 l 16.163,2.42 z"
       style="fill:#ffffff" /><path
       inkscape:connector-curvature="0"
       id="path10"
       d="m 19.27,44.66 c 1.043,5.537 6.378,9.18 11.913,8.139 C 36.721,51.754 40.364,46.42 39.32,40.883 38.278,35.348 32.943,31.706 27.407,32.748 21.87,33.79 18.229,39.125 19.27,44.66 Z m 17.823,-4.638 c 0.683,-0.129 1.341,0.322 1.469,1.003 0.129,0.684 -0.32,1.342 -1.003,1.471 l -16.06,3.025 c -0.683,0.129 -1.34,-0.318 -1.469,-1.002 -0.129,-0.684 0.321,-1.342 1.003,-1.471 l 16.06,-3.026 z"
       style="fill:#ffffff" /></g></svg>